<svg xmlns="http://www.w3.org/2000/svg" viewBox="0 0 128 128" width="128px" height="128px"><path fill="#fff" d="M55.5,112.1C48.4,104.9,44,94.9,44,84c0-22.1,17.9-40,40-40s40,17.9,40,40s-17.9,40-40,40H44L55.5,112.1z"/><path fill="#71c2ff" d="M84,127H44c-1.2,0-2.3-0.7-2.8-1.8c-0.5-1.1-0.2-2.4,0.6-3.3l9.5-9.9c-3.8-4.4-6.7-9.6-8.4-15.1c-0.5-1.6,0.4-3.3,2-3.8c1.6-0.5,3.3,0.4,3.8,2c1.7,5.6,4.8,10.7,9,14.9c1.1,1.2,1.2,3,0,4.2l-6.6,6.8H84c20.4,0,37-16.6,37-37c0-16.3-10.4-30.5-26-35.3c-1.6-0.5-2.5-2.2-2-3.8c0.5-1.6,2.2-2.5,3.8-2C114.9,48.6,127,65.1,127,84C127,107.7,107.7,127,84,127z"/><path fill="#fff" d="M72.5,72.1C79.6,64.9,84,54.9,84,44C84,21.9,66.1,4,44,4S4,21.9,4,44s17.9,40,40,40h40L72.5,72.1z"/><path fill="#71c2ff" d="M59 40H29c-1.7 0-3-1.3-3-3s1.3-3 3-3h30c1.7 0 3 1.3 3 3S60.7 40 59 40zM44 55H29c-1.7 0-3-1.3-3-3s1.3-3 3-3h15c1.7 0 3 1.3 3 3S45.7 55 44 55zM59 55c-.2 0-.4 0-.6-.1-.2 0-.4-.1-.6-.2-.2-.1-.3-.2-.5-.3-.2-.1-.3-.2-.5-.4C56.3 53.6 56 52.8 56 52c0-.2 0-.4.1-.6 0-.2.1-.4.2-.6.1-.2.2-.3.3-.5.1-.2.2-.3.4-.5 1.1-1.1 3.1-1.1 4.2 0 .6.6.9 1.3.9 2.1s-.3 1.6-.9 2.1c-.1.1-.3.3-.4.4-.2.1-.3.2-.5.3-.2.1-.4.1-.6.2C59.4 55 59.2 55 59 55z"/><path fill="#444b54" d="M84,87H44C20.3,87,1,67.7,1,44S20.3,1,44,1c23.7,0,43,19.3,43,43c0,10.4-3.7,20.2-10.4,28l9.5,9.9c0.8,0.9,1.1,2.1,0.6,3.3C86.3,86.3,85.2,87,84,87z M44,7C23.6,7,7,23.6,7,44s16.6,37,37,37h32.9l-6.6-6.8c-1.1-1.2-1.1-3,0-4.2C77.2,63,81,53.8,81,44C81,23.6,64.4,7,44,7z"/></svg>