<svg xmlns="http://www.w3.org/2000/svg" viewBox="0 0 128 128" width="128px" height="128px"><path fill="#fff" d="M31.9,95.6C23.9,87.5,19,76.3,19,64c0-24.9,20.1-45,45-45s45,20.1,45,45s-20.1,45-45,45H19L31.9,95.6z"/><path fill="#1fd4af" d="M79,29c0-11,9-20,20-20c5.2,0,10,2,13.5,5.3c0.4,0.4-0.7,1-0.9,1.6c-0.1,0.6,0.7,1.3,1,1.7c0.4,0.5,1.5,1.6,2.4,1.8c0.6,0.1,1.1-0.7,1.2-0.4c1.7,2.9,2.7,6.4,2.7,10c0,11-9,20-20,20S79,40,79,29z"/><path fill="#fff" d="M112.5,14.3l-13.4,15l-4.8-6.2c-1-1.3-2.9-1.5-4.2-0.5c-1.3,1-1.5,2.9-0.5,4.2l7,9c0.5,0.7,1.4,1.1,2.3,1.2c0,0,0.1,0,0.1,0c0.9,0,1.7-0.4,2.2-1l15.1-17C115.3,17.3,114,15.7,112.5,14.3z"/><path fill="#444b54" d="M64,112H19c-1.2,0-2.3-0.7-2.8-1.8c-0.5-1.1-0.2-2.4,0.6-3.3l11-11.4C20.2,86.8,16,75.7,16,64c0-26.5,21.5-48,48-48c1.3,0,2.5,0,3.8,0.1c1.7,0.1,2.9,1.6,2.8,3.2c-0.1,1.7-1.6,2.9-3.2,2.8C66.2,22,65.1,22,64,22c-23.2,0-42,18.8-42,42c0,11.1,4.3,21.6,12.1,29.5c1.1,1.2,1.2,3,0,4.2l-8,8.3H64c23.2,0,42-18.8,42-42c0-1.1,0-2.2-0.1-3.3c-0.1-1.7,1.1-3.1,2.8-3.2c1.6-0.1,3.1,1.1,3.2,2.8c0.1,1.2,0.1,2.5,0.1,3.7C112,90.5,90.5,112,64,112z"/><path fill="#d3d8dd" d="M81 58H47c-1.7 0-3-1.3-3-3s1.3-3 3-3h34c1.7 0 3 1.3 3 3S82.7 58 81 58zM66 76H47c-1.7 0-3-1.3-3-3s1.3-3 3-3h19c1.7 0 3 1.3 3 3S67.7 76 66 76z"/><g><path fill="#d3d8dd" d="M82,76h-1c-1.7,0-3-1.3-3-3s1.3-3,3-3h1c1.7,0,3,1.3,3,3S83.7,76,82,76z"/></g></svg>