<svg fill="#ffffff" xmlns="http://www.w3.org/2000/svg" viewBox="0 0 30 30" width="60px" height="60px"><path d="M 18.964844 3 A 1.0001 1.0001 0 0 0 18.064453 3.6484375 L 15.308594 11 L 6 11 C 4.895 11 4 11.895 4 13 C 4 14.105 4.895 15 6 15 L 15.308594 15 L 18.064453 22.351562 A 1.0001 1.0001 0 0 0 19.164062 22.986328 L 25.164062 21.986328 A 1.0001 1.0001 0 0 0 26 21 L 26 5 A 1.0001 1.0001 0 0 0 25.164062 4.0136719 L 19.164062 3.0136719 A 1.0001 1.0001 0 0 0 18.964844 3 z M 20 5.1796875 L 24 5.8476562 L 24 20.152344 L 20 20.820312 L 20 5.1796875 z M 9 17 L 9 22.585938 L 6.2929688 25.292969 A 1.0001 1.0001 0 1 0 7.7070312 26.707031 L 9.0625 25.351562 A 1 1 0 0 0 10 26 A 1 1 0 0 0 10.935547 25.349609 L 12.292969 26.707031 A 1.0001 1.0001 0 1 0 13.707031 25.292969 L 11 22.585938 L 11 17 L 9 17 z"/></svg>