<svg xmlns="http://www.w3.org/2000/svg" width="42" height="42" viewBox="0 0 42 42">
  <path id="icons8-ethernet-on" d="M9,4A5.015,5.015,0,0,0,4,9V41a5.015,5.015,0,0,0,5,5H41a5.015,5.015,0,0,0,5-5V9a5.015,5.015,0,0,0-5-5ZM9,6H41a2.985,2.985,0,0,1,3,3V41a2.985,2.985,0,0,1-3,3H9a2.985,2.985,0,0,1-3-3V9A2.985,2.985,0,0,1,9,6Zm2,7V31h4v3h4v3H31V34h4V31h4V13H11Zm2,2H37V29H33v3H29v3H21V32H17V29H13Zm2,2v7h2V17Zm3,0v7h2V17Zm3,0v7h2V17Zm3,0v7h2V17Zm3,0v7h2V17Zm3,0v7h2V17Zm3,0v7h2V17Z" transform="translate(-4 -4)" fill="#fff"/>
</svg>
