<svg xmlns="http://www.w3.org/2000/svg" width="42" height="42" viewBox="0 0 42 42">
  <path id="icons8-ethernet-off" d="M9,4A5.015,5.015,0,0,0,4,9V41a5.015,5.015,0,0,0,5,5H41a5.015,5.015,0,0,0,5-5V9a5.015,5.015,0,0,0-5-5ZM9,6H41a2.985,2.985,0,0,1,3,3V41a2.985,2.985,0,0,1-3,3H9a2.985,2.985,0,0,1-3-3V9A2.985,2.985,0,0,1,9,6Zm2,7V31h8v6H31V31h8V13H11Zm2,2h2v3h2V15h1v3h2V15h1v3h2V15h1v3h2V15h1v3h2V15h1v3h2V15h1v3h2V15h2V29H29v6H21V29H13Z" transform="translate(46 46) rotate(180)" fill="#fff"/>
</svg>
