<svg id="e9vc05pnpm2b1" xmlns="http://www.w3.org/2000/svg" xmlns:xlink="http://www.w3.org/1999/xlink" viewBox="0 0 42 42" shape-rendering="geometricPrecision" text-rendering="geometricPrecision"><style><![CDATA[#e9vc05pnpm2b2 {animation: e9vc05pnpm2b2_c_o 3000ms linear infinite normal forwards}@keyframes e9vc05pnpm2b2_c_o { 0% {opacity: 1} 3% {opacity: 1} 3.333333% {opacity: 0} 11.333333% {opacity: 0} 11.666667% {opacity: 1} 13% {opacity: 1} 13.333333% {opacity: 0} 14% {opacity: 0} 14.333333% {opacity: 1} 15% {opacity: 1} 15.333333% {opacity: 0} 16.666667% {opacity: 0} 17% {opacity: 1} 18.333333% {opacity: 1} 18.666667% {opacity: 0} 19.333333% {opacity: 0} 19.666667% {opacity: 1} 20.333333% {opacity: 1} 20.666667% {opacity: 0} 21% {opacity: 1} 22.333333% {opacity: 1} 22.666667% {opacity: 0} 23.333333% {opacity: 0} 23.666667% {opacity: 1} 24.333333% {opacity: 1} 24.666667% {opacity: 0} 31.333333% {opacity: 0} 31.666667% {opacity: 1} 33% {opacity: 1} 33.333333% {opacity: 0} 34% {opacity: 0} 34.333333% {opacity: 1} 35% {opacity: 1} 35.333333% {opacity: 0} 39.666667% {opacity: 0} 40% {opacity: 1} 41.333333% {opacity: 1} 41.666667% {opacity: 0} 42.333333% {opacity: 0} 42.666667% {opacity: 1} 43.333333% {opacity: 1} 43.666667% {opacity: 0} 44% {opacity: 1} 45.333333% {opacity: 1} 45.666667% {opacity: 0} 46.333333% {opacity: 0} 46.666667% {opacity: 1} 47.333333% {opacity: 1} 47.666667% {opacity: 0} 48% {opacity: 1} 49.333333% {opacity: 1} 49.666667% {opacity: 0} 50.333333% {opacity: 0} 50.666667% {opacity: 1} 51.333333% {opacity: 1} 51.666667% {opacity: 0} 52% {opacity: 1} 53.333333% {opacity: 1} 53.666667% {opacity: 0} 54.333333% {opacity: 0} 54.666667% {opacity: 1} 55.333333% {opacity: 1} 55.666667% {opacity: 0} 63.333333% {opacity: 0} 63.666667% {opacity: 1} 65% {opacity: 1} 65.333333% {opacity: 0} 66% {opacity: 0} 66.333333% {opacity: 1} 67% {opacity: 1} 67.333333% {opacity: 0} 78.666667% {opacity: 0} 79% {opacity: 1} 80.333333% {opacity: 1} 80.666667% {opacity: 0} 81.333333% {opacity: 0} 81.666667% {opacity: 1} 82.333333% {opacity: 1} 82.666667% {opacity: 0} 83% {opacity: 1} 84.333333% {opacity: 1} 84.666667% {opacity: 0} 85.333333% {opacity: 0} 85.666667% {opacity: 1} 86.333333% {opacity: 1} 86.666667% {opacity: 0} 94.666667% {opacity: 0} 95% {opacity: 1} 96.333333% {opacity: 1} 96.666667% {opacity: 0} 97.333333% {opacity: 0} 97.666667% {opacity: 1} 98.333333% {opacity: 1} 98.666667% {opacity: 0} 100% {opacity: 0} }]]></style><rect id="e9vc05pnpm2b2" width="6" height="4" rx="0" ry="0" transform="matrix(1 0 0 1 29 9)" fill="rgb(255,177,0)" stroke="none" stroke-width="1"/><rect id="e9vc05pnpm2b3" width="6" height="4" rx="0" ry="0" transform="matrix(1 0 0 1 7 9)" fill="rgb(157,255,0)" stroke="none" stroke-width="1"/><path id="e9vc05pnpm2b4" d="M9,4C6.241995,4.008237,4.008237,6.241995,4,9L4,41C4.008237,43.758005,6.241995,45.991763,9,46L41,46C43.758005,45.991763,45.991763,43.758005,46,41L46,9C45.991763,6.241995,43.758005,4.008237,41,4ZM9,6L41,6C41.796873,5.995985,42.562270,6.310767,43.125752,6.874248C43.689233,7.437730,44.004015,8.203127,44,9L44,41C44.004015,41.796873,43.689233,42.562270,43.125752,43.125752C42.562270,43.689233,41.796873,44.004015,41,44L9,44C8.203127,44.004015,7.437730,43.689233,6.874248,43.125752C6.310767,42.562270,5.995985,41.796873,6,41L6,9C5.995985,8.203127,6.310767,7.437730,6.874248,6.874248C7.437730,6.310767,8.203127,5.995985,9,6ZM11,13L11,31L19,31L19,37L31,37L31,31L39,31L39,13L11,13ZM13,15L15,15L15,18L17,18L17,15L18,15L18,18L20,18L20,15L21,15L21,18L23,18L23,15L24,15L24,18L26,18L26,15L27,15L27,18L29,18L29,15L30,15L30,18L32,18L32,15L33,15L33,18L35,18L35,15L37,15L37,29L29,29L29,35L21,35L21,29L13,29Z" transform="matrix(-1 0 -0 -1 46 46)" fill="rgb(255,255,255)" stroke="none" stroke-width="1"/></svg>