<svg id="egbtyakuqrrn1" xmlns="http://www.w3.org/2000/svg" xmlns:xlink="http://www.w3.org/1999/xlink" viewBox="0 0 42 42" shape-rendering="geometricPrecision" text-rendering="geometricPrecision"><rect id="egbtyakuqrrn2" width="6" height="4" rx="0" ry="0" transform="matrix(1 0 0 1 7 9)" fill="rgb(157,255,0)" stroke="none" stroke-width="1"/><path id="egbtyakuqrrn3" d="M9,4C6.241995,4.008237,4.008237,6.241995,4,9L4,41C4.008237,43.758005,6.241995,45.991763,9,46L41,46C43.758005,45.991763,45.991763,43.758005,46,41L46,9C45.991763,6.241995,43.758005,4.008237,41,4ZM9,6L41,6C41.796873,5.995985,42.562270,6.310767,43.125752,6.874248C43.689233,7.437730,44.004015,8.203127,44,9L44,41C44.004015,41.796873,43.689233,42.562270,43.125752,43.125752C42.562270,43.689233,41.796873,44.004015,41,44L9,44C8.203127,44.004015,7.437730,43.689233,6.874248,43.125752C6.310767,42.562270,5.995985,41.796873,6,41L6,9C5.995985,8.203127,6.310767,7.437730,6.874248,6.874248C7.437730,6.310767,8.203127,5.995985,9,6ZM11,13L11,31L19,31L19,37L31,37L31,31L39,31L39,13L11,13ZM13,15L15,15L15,18L17,18L17,15L18,15L18,18L20,18L20,15L21,15L21,18L23,18L23,15L24,15L24,18L26,18L26,15L27,15L27,18L29,18L29,15L30,15L30,18L32,18L32,15L33,15L33,18L35,18L35,15L37,15L37,29L29,29L29,35L21,35L21,29L13,29Z" transform="matrix(-1 0 -0 -1 46 46)" fill="rgb(255,255,255)" stroke="none" stroke-width="1"/></svg>