<?xml version="1.0" encoding="utf-8"?>
<!-- Generator: Adobe Illustrator 24.2.0, SVG Export Plug-In . SVG Version: 6.00 Build 0)  -->
<svg version="1.1" id="Layer_1" xmlns="http://www.w3.org/2000/svg" xmlns:xlink="http://www.w3.org/1999/xlink" x="0px" y="0px"
	 viewBox="0 0 128 128" style="enable-background:new 0 0 128 128;" xml:space="preserve">
<style type="text/css">
	.st0{fill:#FFFFFF;}
	.st1{opacity:0;fill:#FFFFFF;}
</style>
<path class="st0" d="M111.5,121.7h-79c-1.7,0-3-1.3-3-3s1.3-3,3-3h79c3.9,0,7-3.1,7-7V37c0-1.7,1.3-3,3-3s3,1.3,3,3v71.6
	C124.5,115.8,118.7,121.7,111.5,121.7z"/>
<path class="st1" d="M97.5,105.7h-79c-5.5,0-10-4.5-10-10V34h99v61.6C107.5,101.2,103,105.7,97.5,105.7z"/>
<path class="st0" d="M97.5,108.7h-79c-7.2,0-13-5.8-13-13V34c0-1.7,1.3-3,3-3s3,1.3,3,3v61.6c0,3.9,3.1,7,7,7h79c3.9,0,7-3.1,7-7V34
	c0-1.7,1.3-3,3-3s3,1.3,3,3v61.6C110.5,102.8,104.7,108.7,97.5,108.7z"/>
<path class="st0" d="M107.5,37c-1.7,0-3-1.3-3-3V24c0-3.9-3.1-7-7-7h-79c-3.9,0-7,3.1-7,7v10c0,1.7-1.3,3-3,3s-3-1.3-3-3V24
	c0-7.2,5.8-13,13-13h79c7.2,0,13,5.8,13,13v10C110.5,35.7,109.2,37,107.5,37z"/>
<path class="st0" d="M97.5,14h-79c-5.5,0-10,0.9-10,3.1v15c0,0.1,4.5,1,10,1h79c5.5,0,10-0.9,10-1.1v-15C107.5,14.9,103,14,97.5,14z
	 M21.3,24.3c-0.1,0.2-0.1,0.4-0.2,0.6c-0.1,0.2-0.2,0.4-0.3,0.5c-0.1,0.2-0.2,0.3-0.4,0.5c-0.3,0.8-1.1,1.1-1.9,1.1
	c-0.2,0-0.4,0-0.6-0.1c-0.2,0-0.4-0.1-0.6-0.2c-0.2-0.1-0.3-0.2-0.5-0.3c-0.2-0.1-0.3-0.2-0.5-0.4s-0.3-0.3-0.4-0.5
	c-0.1-0.2-0.2-0.3-0.3-0.5c-0.1-0.2-0.1-0.4-0.2-0.6c-0.1-0.2-0.1-0.4-0.1-0.6c0-0.8,0.3-1.6,0.9-2.1c0.1-0.1,0.3-0.3,0.5-0.4
	c0.2-0.1,0.3-0.2,0.5-0.3s0.4-0.1,0.6-0.2c1-0.2,2,0.1,2.7,0.8c0.6,0.6,0.9,1.3,0.9,2.1C21.4,23.9,21.4,24.1,21.3,24.3z M30.8,26.1
	c-0.7,0.6-1.5,0.9-2.3,0.9s-1.6-0.3-2.1-0.9c-0.6-0.6-0.9-1.3-0.9-2.1s0.3-1.6,0.9-2.1c0.1-0.1,0.3-0.3,0.5-0.4
	c0.2-0.1,0.3-0.2,0.5-0.3c0.2-0.1,0.4-0.1,0.6-0.2c0.4-0.1,0.8-0.1,1.2,0c0.2,0,0.4,0.1,0.6,0.2c0.2,0.1,0.4,0.2,0.5,0.3
	c0.2,0.1,0.3,0.2,0.5,0.4c0.6,0.6,0.9,1.3,0.9,2.1S31.4,25.6,30.8,26.1z M41.3,24.3c-0.1,0.2-0.1,0.4-0.2,0.6
	c-0.1,0.2-0.2,0.4-0.3,0.5c-0.1,0.2-0.2,0.3-0.4,0.5c-0.3,0.8-1.1,1.1-1.9,1.1c-0.2,0-0.4,0-0.6-0.1c-0.2,0-0.4-0.1-0.6-0.2
	c-0.2-0.1-0.3-0.2-0.5-0.3c-0.2-0.1-0.3-0.2-0.5-0.4s-0.3-0.3-0.4-0.5c-0.1-0.2-0.2-0.3-0.3-0.5c-0.1-0.2-0.1-0.4-0.2-0.6
	c-0.1-0.2-0.1-0.4-0.1-0.6c0-0.8,0.3-1.6,0.9-2.1c0.1-0.1,0.3-0.3,0.5-0.4c0.2-0.1,0.3-0.2,0.5-0.3s0.4-0.1,0.6-0.2
	c1-0.2,2,0.1,2.7,0.8c0.6,0.6,0.9,1.3,0.9,2.1C41.4,23.9,41.4,24.1,41.3,24.3z"/>
</svg>
